<?xml version="1.0" encoding="UTF-8" standalone="no" ?>
<!DOCTYPE svg PUBLIC "-//W3C//DTD SVG 1.1//EN" "http://www.w3.org/Graphics/SVG/1.1/DTD/svg11.dtd">
<svg xmlns="http://www.w3.org/2000/svg" xmlns:xlink="http://www.w3.org/1999/xlink" version="1.1" width="650" height="650" viewBox="0 0 650 650" xml:space="preserve">
<desc>Generated by Tnagele Font Awesome 3</desc>
<defs>
</defs>
<g transform="matrix(1 0 0 1 326.5 326.5)"  >
<path style="stroke: rgb(255,255,255); stroke-width: 4; stroke-dasharray: none; stroke-linecap: butt; stroke-dashoffset: 0; stroke-linejoin: miter; stroke-miterlimit: 4; fill: rgb(255,255,255); fill-rule: nonzero; opacity: 1;"  transform=" translate(-288, -256.05)" d="M 402.6 83.2 l 90.2 90.2 c 3.8 3.8 3.8 10 0 13.8 L 274.4 405.6 l -92.8 10.3 c -12.4 1.4 -22.9 -9.1 -21.5 -21.5 l 10.3 -92.8 L 388.8 83.2 c 3.8 -3.8 10 -3.8 13.8 0 z m 162 -22.9 l -48.8 -48.8 c -15.2 -15.2 -39.9 -15.2 -55.2 0 l -35.4 35.4 c -3.8 3.8 -3.8 10 0 13.8 l 90.2 90.2 c 3.8 3.8 10 3.8 13.8 0 l 35.4 -35.4 c 15.2 -15.3 15.2 -40 0 -55.2 z M 384 346.2 V 448 H 64 V 128 h 229.8 c 3.2 0 6.2 -1.3 8.5 -3.5 l 40 -40 c 7.6 -7.6 2.2 -20.5 -8.5 -20.5 H 48 C 21.5 64 0 85.5 0 112 v 352 c 0 26.5 21.5 48 48 48 h 352 c 26.5 0 48 -21.5 48 -48 V 306.2 c 0 -10.7 -12.9 -16 -20.5 -8.5 l -40 40 c -2.2 2.3 -3.5 5.3 -3.5 8.5 z" stroke-linecap="round" />
</g>
</svg>